<svg xmlns="http://www.w3.org/2000/svg" viewBox="0 0 263.61 105.11"><defs><style>.cls-1{fill:#d8d7d7;}</style></defs><title>Fichier 1</title><g id="Calque_2" data-name="Calque 2"><g id="Header"><polygon class="cls-1" points="41.69 0 0.94 40.74 2.2 42 24.59 19.61 46.34 41.35 47.6 40.1 25.85 18.35 41.69 2.51 82.12 42.94 83.38 41.68 41.69 0"/><polygon class="cls-1" points="58.79 85.5 37.04 63.75 35.79 65.01 57.53 86.76 41.69 102.6 1.25 62.17 0 63.42 41.69 105.11 81.95 64.85 80.7 63.6 58.79 85.5"/><path class="cls-1" d="M120.08,29.23v5.54h6.19v1.94h-6.19v9.22H118V27.29h8.47v1.94Z"/><path class="cls-1" d="M148,27a9.64,9.64,0,1,1-9.65,9.84A9.75,9.75,0,0,1,148,27Zm0,17.35a7.7,7.7,0,1,0-7.53-7.78A7.64,7.64,0,0,0,148,44.32Z"/><path class="cls-1" d="M172.89,44H178v1.94H170.8V27.29h2.09Z"/><path class="cls-1" d="M192.27,44h5.12v1.94h-7.21V27.29h2.09Z"/><path class="cls-1" d="M217.22,27a9.64,9.64,0,1,1-9.64,9.84A9.75,9.75,0,0,1,217.22,27Zm0,17.35a7.7,7.7,0,1,0-7.53-7.78A7.64,7.64,0,0,0,217.22,44.32Z"/><path class="cls-1" d="M244.52,41.26l5.84-14.91,5.52,14.93,5.47-14h2.26l-7.8,19.61L250.32,32,244.45,46.9l-7.16-19.61h2.27Z"/><path class="cls-1" d="M131.47,57.62v5.55h6.19v1.94h-6.19v9.21h-2.09V55.69h8.47v1.93Z"/><path class="cls-1" d="M161,74.32h-2.56l-5.62-8.17h-.52v8.17h-2.08V55.69h3a7.38,7.38,0,0,1,4.47,1,5,5,0,0,1,2.07,4.2,4.87,4.87,0,0,1-4.7,5.08Zm-7.41-10c2.64,0,4.1-1.22,4.1-3.41a3.11,3.11,0,0,0-1.34-2.68,5.07,5.07,0,0,0-2.8-.6h-1.25v6.69Z"/><path class="cls-1" d="M175.13,74.32H173V55.69h2.09Z"/><path class="cls-1" d="M189.05,55.69h3.83a9.85,9.85,0,0,1,6.83,2.16A9.12,9.12,0,0,1,202.94,65a9,9,0,0,1-3.3,7.15c-1.84,1.54-3.78,2.16-6.79,2.16h-3.8Zm3.9,16.7c4.75,0,7.88-2.94,7.88-7.38s-3.11-7.39-7.88-7.39h-1.81V72.39Z"/><path class="cls-1" d="M217.57,69.06l-2.24,5.26h-2.26l8.57-19.53L230,74.32h-2.29l-2.19-5.26Zm4.05-9.42-3.21,7.48h6.31Z"/><path class="cls-1" d="M238,55.69h2.42L245.19,64,250,55.69h2.41L246.21,66.3v8h-2.09v-8Z"/></g></g></svg>