<svg xmlns="http://www.w3.org/2000/svg" viewBox="0 0 18.62 15.13"><defs><style>.cls-1{fill:#3aa8db;}</style></defs><title>Fichier 3</title><g id="Calque_2" data-name="Calque 2"><g id="Page"><path class="cls-1" d="M18.62,1.79a7.64,7.64,0,0,1-2.19.6A3.84,3.84,0,0,0,18.11.28a7.85,7.85,0,0,1-2.43.93A3.82,3.82,0,0,0,9.07,3.82a4.14,4.14,0,0,0,.1.87A10.84,10.84,0,0,1,1.3.7,3.78,3.78,0,0,0,.78,2.62,3.82,3.82,0,0,0,2.48,5.8,3.73,3.73,0,0,1,.75,5.32v0A3.83,3.83,0,0,0,3.81,9.12a4.15,4.15,0,0,1-1,.13,3.38,3.38,0,0,1-.72-.07,3.8,3.8,0,0,0,3.57,2.65A7.66,7.66,0,0,1,.91,13.47,9.08,9.08,0,0,1,0,13.42a10.85,10.85,0,0,0,5.86,1.71A10.8,10.8,0,0,0,16.73,4.26c0-.16,0-.33,0-.49A7.65,7.65,0,0,0,18.62,1.79Z"/></g></g></svg>